<svg width="295" height="295" xmlns="http://www.w3.org/2000/svg">
 <title/>
 <desc/>

 <g>
  <title>background</title>
  <rect fill="none" id="canvas_background" height="402" width="582" y="-1" x="-1"/>
 </g>
 <g>
  <title>Layer 1</title>
  <path id="Shape" fill="#000000" d="m147.421,0c-81.288,0 -147.421,66.133 -147.421,147.421c0,40.968 17.259,80.425 47.351,108.255c2.433,2.25 6.229,2.101 8.479,-0.331c2.25,-2.434 2.102,-6.229 -0.332,-8.479c-27.644,-25.566 -43.498,-61.812 -43.498,-99.445c0,-74.671 60.75,-135.421 135.421,-135.421c74.671,0 135.421,60.75 135.421,135.421c0,74.671 -60.75,135.421 -135.421,135.421c-3.313,0 -6,2.687 -6,6c0,3.313 2.687,6 6,6c81.289,0 147.421,-66.133 147.421,-147.421c0,-81.288 -66.132,-147.421 -147.421,-147.421z"/>
  <path stroke="#ffc928" stroke-opacity="0" id="Shape" fill="#ffc928" d="m84.185,90.185l126.473,0c3.313,0 6,-2.687 6,-6c0,-3.313 -2.687,-6 -6,-6l-126.473,0c-3.313,0 -6,2.687 -6,6c0,3.313 2.687,6 6,6z"/>
  <path id="Shape" fill="#ffc928" d="m84.185,153.421l126.473,0c3.313,0 6,-2.687 6,-6c0,-3.313 -2.687,-6 -6,-6l-126.473,0c-3.313,0 -6,2.687 -6,6c0,3.313 2.687,6 6,6z"/>
  <path id="Shape" fill="#ffc928" d="m216.658,210.658c0,-3.313 -2.687,-6 -6,-6l-126.473,0c-3.313,0 -6,2.687 -6,6c0,3.313 2.687,6 6,6l126.473,0c3.313,0 6,-2.687 6,-6z"/>
 </g>
</svg>